<svg xmlns="http://www.w3.org/2000/svg" viewBox="0 0 512 512">
  <defs>
    <linearGradient id="bg" x1="0%" x2="100%" y1="0%" y2="100%">
      <stop offset="0%" stop-color="#264653" />
      <stop offset="100%" stop-color="#1a2d35" />
    </linearGradient>
    <linearGradient id="accent" x1="0%" x2="100%" y1="0%" y2="100%">
      <stop offset="0%" stop-color="#f4a261" />
      <stop offset="100%" stop-color="#c95f2d" />
    </linearGradient>
  </defs>
  <rect width="512" height="512" rx="112" fill="url(#bg)" />
  <rect x="106" y="88" width="248" height="336" rx="28" fill="#f6f2ea" />
  <rect x="142" y="138" width="176" height="28" rx="14" fill="#d8dee3" />
  <rect x="142" y="196" width="138" height="20" rx="10" fill="#d8dee3" />
  <rect x="142" y="238" width="120" height="20" rx="10" fill="#d8dee3" />
  <rect x="142" y="280" width="154" height="20" rx="10" fill="#d8dee3" />
  <rect x="142" y="328" width="114" height="46" rx="18" fill="url(#accent)" />
  <path d="M320 130l72 72v168c0 30.928-25.072 56-56 56h-42V130h26z" fill="#fff" opacity=".95" />
  <path d="M320 130v46c0 14.36 11.64 26 26 26h46z" fill="#e7edf1" />
  <path d="M178 351h42l18 15 30-44" fill="none" stroke="#fff" stroke-linecap="round" stroke-linejoin="round" stroke-width="18" />
</svg>
